<svg xmlns="http://www.w3.org/2000/svg" viewBox="0 0 35.278 35.264">
  <defs>
    <style>
      .cls-1 {
        fill: #fff;
      }
    </style>
  </defs>
  <g id="coin" transform="translate(0.001 0)">
    <path id="Path_29" data-name="Path 29" class="cls-1" d="M35.277,17.621A17.639,17.639,0,1,1,17.606,0,17.669,17.669,0,0,1,35.277,17.621ZM17.648,29.7A12.064,12.064,0,1,0,5.564,17.713,12.072,12.072,0,0,0,17.648,29.7ZM4.187,17.628H3.779c-.667,0-1.335.021-2-.007-.344-.014-.436.091-.422.436a16.139,16.139,0,0,0,1.651,6.689c.429.85.941,1.651,1.433,2.508.822-.6,1.567-1.145,2.333-1.7A13.527,13.527,0,0,1,4.187,17.628Zm9.288,12.794c-.3.906-.576,1.778-.871,2.691a16.5,16.5,0,0,0,10.075-.007c-.3-.927-.59-1.8-.878-2.684A13.8,13.8,0,0,1,13.475,30.423Zm17.6-12.787a13.547,13.547,0,0,1-2.572,7.9c.773.562,1.518,1.1,2.283,1.658A16.219,16.219,0,0,0,33.9,17.635ZM6.737,9.759a13.733,13.733,0,0,1,6.731-4.911c-.3-.906-.583-1.778-.878-2.684A16.447,16.447,0,0,0,4.453,8.1ZM30.78,8.052a16.53,16.53,0,0,0-8.157-5.909c-.3.913-.576,1.785-.864,2.684A13.729,13.729,0,0,1,28.5,9.717C29.262,9.162,30,8.621,30.78,8.052Z" transform="translate(0 0)"/>
    <path id="Path_30" data-name="Path 30" class="cls-1" d="M344.714,209.659c.794,0,1.546-.049,2.284.014a1.154,1.154,0,0,1,1.145,1.089,8.037,8.037,0,0,1,.007,1.644,1.267,1.267,0,0,1-.7,1.019,1.5,1.5,0,0,1,.745,1.454v2.255a5.8,5.8,0,0,1-.906-.021c-.084-.014-.19-.239-.2-.372-.021-.6-.007-1.194-.014-1.792-.007-.667-.288-.92-.956-.913-.239,0-.3.091-.3.309.007.808-.007,1.616.007,2.424.007.3-.091.379-.379.372-.752-.007-.752.007-.752-.731v-6.422C344.7,209.87,344.707,209.757,344.714,209.659Zm1.117,3.323h.541a.549.549,0,0,0,.6-.513,7.664,7.664,0,0,0-.007-1.391c-.035-.351-.794-.6-1.068-.386a.223.223,0,0,0-.063.155C345.824,211.535,345.831,212.237,345.831,212.982Z" transform="translate(-320.482 -194.911)"/>
    <path id="Path_31" data-name="Path 31" class="cls-1" d="M165.91,211.271c0,.682.007,1.356,0,2.038a1.793,1.793,0,0,1-2.768,1.567,1.587,1.587,0,0,1-.787-1.44c-.021-1.447-.028-2.9,0-4.356a1.776,1.776,0,0,1,3.548.014c.028.724.007,1.447.007,2.178Zm-1.187-.021h0c0-.689.007-1.384-.007-2.073-.014-.534-.267-.766-.731-.71-.337.042-.52.26-.52.717-.007,1.384-.007,2.761,0,4.145a1.17,1.17,0,0,0,.07.379.544.544,0,0,0,.555.344.517.517,0,0,0,.548-.351,1.824,1.824,0,0,0,.077-.52C164.73,212.535,164.722,211.9,164.722,211.249Z" transform="translate(-150.931 -192.827)"/>
    <path id="Path_32" data-name="Path 32" class="cls-1" d="M225.17,212.047c.443-.927.9-1.841,1.328-2.775a.462.462,0,0,1,.527-.33c.232.021.464.007.745.007-.049.119-.084.211-.126.3-.457.934-.92,1.862-1.363,2.8a.719.719,0,0,0-.021.513c.429,1.138.885,2.262,1.328,3.394.056.148.112.3.2.513-.379,0-.71.014-1.04-.014-.084-.007-.19-.148-.232-.246-.309-.78-.6-1.567-.906-2.354-.042-.105-.084-.211-.148-.372a1.442,1.442,0,0,0-.379.934c.014.323,0,.653,0,.984v1.068c-.365,0-.7.014-1.033-.014-.063-.007-.162-.2-.162-.309-.014-1.089-.007-2.178-.007-3.267v-3.913h1.194v3.063A.493.493,0,0,0,225.17,212.047Z" transform="translate(-208.147 -194.257)"/>
    <path id="Path_33" data-name="Path 33" class="cls-1" d="M106.766,213.179v2.867H105.6V208.5c.815.049,1.63.035,2.431.155a1.2,1.2,0,0,1,.984,1.18,12.17,12.17,0,0,1,.007,1.96,1.4,1.4,0,0,1-1.447,1.377C107.314,213.193,107.054,213.179,106.766,213.179Zm.021-3.583v2.536c.211,0,.408.007.6,0a.474.474,0,0,0,.52-.5c.021-.513.014-1.026.007-1.539a.474.474,0,0,0-.485-.492C107.223,209.582,107.019,209.6,106.787,209.6Z" transform="translate(-98.181 -193.851)"/>
    <path id="Path_34" data-name="Path 34" class="cls-1" d="M290.876,209.3v1.033c-.555,0-1.089.014-1.623-.007-.309-.014-.408.084-.393.393.021.555.007,1.117.007,1.721h1.644V213.5c-.443,0-.871.014-1.3-.007-.288-.014-.358.091-.351.365.014.618.007,1.237.007,1.89h2v1.033H287.7V209.3Z" transform="translate(-267.487 -194.595)"/>
    <path id="Path_35" data-name="Path 35" class="cls-1" d="M212.137,105.5c.274.555.541,1.033.752,1.539a.629.629,0,0,0,.583.4c.527.063,1.054.148,1.581.225-.408.429-.794.843-1.194,1.244a.479.479,0,0,0-.176.513c.119.555.2,1.124.3,1.757-.52-.267-1-.492-1.454-.766a.686.686,0,0,0-.794.007c-.443.26-.906.485-1.433.759a10.767,10.767,0,0,1,.218-1.307,1.054,1.054,0,0,0-.4-1.272,10.683,10.683,0,0,1-.92-.941c.541-.077,1.068-.169,1.595-.225a.659.659,0,0,0,.6-.429C211.61,106.519,211.863,106.041,212.137,105.5Z" transform="translate(-194.502 -98.088)"/>
    <path id="Path_36" data-name="Path 36" class="cls-1" d="M311.268,146.2c.225.745.625,1.166,1.461,1.068a1.291,1.291,0,0,0-.541,1.728,1.542,1.542,0,0,1-2.389-1.7A1.3,1.3,0,0,0,311.268,146.2Z" transform="translate(-288.034 -135.928)"/>
    <path id="Path_37" data-name="Path 37" class="cls-1" d="M151.761,146.5a1.266,1.266,0,0,0,1.468,1.054,1.207,1.207,0,0,0-.5,1.7c-.028.007-.063.021-.091.028a2.715,2.715,0,0,1-.4-.211.7.7,0,0,0-.913-.007,3.8,3.8,0,0,1-.506.267,1.248,1.248,0,0,0-.52-1.749A1.3,1.3,0,0,0,151.761,146.5Z" transform="translate(-139.741 -136.207)"/>
    <path id="Path_38" data-name="Path 38" class="cls-1" d="M310.067,332.934c-.267.26-.45.506-.281.906a.827.827,0,0,1-1.286-.871c.393-.07.738-.091.773-.569C309.456,332.737,309.645,332.99,310.067,332.934Z" transform="translate(-286.826 -309.046)"/>
    <path id="Path_39" data-name="Path 39" class="cls-1" d="M357.3,332.776a.7.7,0,0,0-.239.92c-.351-.232-.639-.337-.956-.028a.774.774,0,0,0-.309-.9.714.714,0,0,0,.759-.569A.733.733,0,0,0,357.3,332.776Z" transform="translate(-330.802 -308.86)"/>
    <path id="Path_40" data-name="Path 40" class="cls-1" d="M264.4,331.66a.722.722,0,0,0,.738-.66c.141.45.344.675.667.625-.1.288-.2.569-.3.864a.567.567,0,0,0-.8.07C264.758,332.187,264.758,331.871,264.4,331.66Z" transform="translate(-245.824 -307.744)"/>
    <path id="Path_41" data-name="Path 41" class="cls-1" d="M123.95,332.7a.728.728,0,0,0,.857.5c-.408.26-.527.541-.372.927a.71.71,0,0,0-.949.007.68.68,0,0,0-.386-.913C123.571,333.213,123.831,333.079,123.95,332.7Z" transform="translate(-114.452 -309.324)"/>
    <path id="Path_42" data-name="Path 42" class="cls-1" d="M217.9,334.357a.653.653,0,0,0,.689-.457c.239.176.471.351.724.534a.614.614,0,0,0-.19.808.788.788,0,0,1-1.223-.885Z" transform="translate(-202.591 -310.44)"/>
    <path id="Path_43" data-name="Path 43" class="cls-1" d="M170.572,333.64a.7.7,0,0,0-.372-.871c.422-.049.738-.126.787-.569.162.344.337.6.78.548a.749.749,0,0,0-.3.9A.692.692,0,0,0,170.572,333.64Z" transform="translate(-158.243 -308.86)"/>
  </g>
</svg>
