<svg xmlns="http://www.w3.org/2000/svg" viewBox="0 0 27.418 22.39">
  <defs>
    <style>
      .cls-1 {
        fill: #fff;
      }
    </style>
  </defs>
  <g id="faq" transform="translate(-2069.001 -679.61)">
    <g id="uBgaxL.tif_1_" transform="translate(2069.001 679.61)">
      <g id="Group_2" data-name="Group 2">
        <path id="Path_3" data-name="Path 3" class="cls-1" d="M704.431,387.4c.233.042.474.075.706.133a3.77,3.77,0,0,1,2.011,1.33.23.23,0,0,1,.042.066h-.141c-1.338,0-2.684-.008-4.022,0a6.165,6.165,0,0,0-5.976,4.779,6.006,6.006,0,0,0-.158,1.438v3.732a.28.28,0,0,1-.075.208c-1.105,1.23-2.219,2.46-3.324,3.69a.334.334,0,0,0-.042.075.063.063,0,0,0-.033-.017v-4.039a.179.179,0,0,0-.108-.183,3.819,3.819,0,0,1-2.186-3.025c-.008-.058-.017-.116-.025-.183v-4.421c.025-.141.042-.283.066-.416a3.843,3.843,0,0,1,2.876-3.058c.216-.05.432-.075.64-.108Z" transform="translate(-691.1 -387.4)"/>
        <path id="Path_4" data-name="Path 4" class="cls-1" d="M796.037,444.173c-.174-.2-.332-.374-.49-.549l-3.516-3.964a.23.23,0,0,0-.2-.091h-8.411a4.625,4.625,0,0,1-3.017-1.055,4.542,4.542,0,0,1-1.67-3.042,6.078,6.078,0,0,1-.033-.673v-5.2a4.648,4.648,0,0,1,4.122-4.662,6.707,6.707,0,0,1,.706-.033H794.1a4.6,4.6,0,0,1,3.167,1.155,4.514,4.514,0,0,1,1.529,2.876,5.261,5.261,0,0,1,.042.723v5.228A4.629,4.629,0,0,1,797.682,438a4.361,4.361,0,0,1-1.521,1.139.181.181,0,0,0-.125.2v4.837ZM785.2,430.917h1.878V430.8c.017-.308.008-.623.042-.931a1.328,1.328,0,0,1,.665-1.1,1.989,1.989,0,0,1,1.928-.042,1.088,1.088,0,0,1,.557.565,1.242,1.242,0,0,1-.457,1.488c-.4.274-.8.54-1.188.814a1.527,1.527,0,0,0-.7,1.263c-.008.748-.008,1.5-.008,2.252,0,.017.008.025.008.033h1.887V433.7a1.117,1.117,0,0,1,.033-.291,1.385,1.385,0,0,1,.665-.848,8.5,8.5,0,0,0,.723-.49,2.668,2.668,0,0,0,1.056-2.743,3.212,3.212,0,0,0-1.554-2.194,3.691,3.691,0,0,0-2.385-.49,3.315,3.315,0,0,0-2.759,1.928,3.393,3.393,0,0,0-.341,1.4C785.216,430.294,785.207,430.6,785.2,430.917Zm4.6,6.915V435.9h-1.878v1.928Z" transform="translate(-771.419 -421.783)"/>
      </g>
    </g>
  </g>
</svg>
