<svg xmlns="http://www.w3.org/2000/svg" viewBox="0 0 20 19.985">
  <defs>
    <style>
      .cls-1 {
        fill: #fff;
      }
    </style>
  </defs>
  <g id="logout" transform="translate(-2144.055 -703.352)">
    <g id="Gu9ScK.tif_1_" transform="translate(2144.055 703.352)">
      <g id="Group_6" data-name="Group 6">
        <path id="Path_12" data-name="Path 12" class="cls-1" d="M1204.8,571.911c.036-.351.063-.7.116-1.054a9.931,9.931,0,0,1,3.042-5.937,9.562,9.562,0,0,1,1.942-1.442c.421-.234.725-.063.725.414,0,.9-.009,1.811.009,2.712a.733.733,0,0,1-.26.586,6.794,6.794,0,0,0-2.058,3.469,6.708,6.708,0,0,0,3.723,7.649,6.591,6.591,0,0,0,9.136-4.118,6.48,6.48,0,0,0-2-7.01.566.566,0,0,1-.2-.441c.009-.946,0-1.9,0-2.847,0-.477.3-.658.707-.423a9.93,9.93,0,0,1,5.011,7.289c.045.288.072.577.107.874v1.18a1.4,1.4,0,0,0-.036.189,9.707,9.707,0,0,1-1.118,3.892,9.894,9.894,0,0,1-12.662,4.586,9.773,9.773,0,0,1-6.014-7.6c-.08-.442-.107-.892-.152-1.343C1204.8,572.325,1204.8,572.118,1204.8,571.911Z" transform="translate(-1204.8 -562.289)"/>
        <path id="Path_13" data-name="Path 13" class="cls-1" d="M1300.612,549.908a.437.437,0,0,1,.272.456v8.007c0,.352-.112.464-.456.464h-2.1a.385.385,0,0,1-.432-.432V550.34a.42.42,0,0,1,.272-.44C1298.98,549.908,1299.8,549.908,1300.612,549.908Z" transform="translate(-1289.392 -549.9)"/>
      </g>
    </g>
  </g>
</svg>
