<svg xmlns="http://www.w3.org/2000/svg" viewBox="0 0 25.451 24.326">
  <defs>
    <style>
      .cls-1 {
        fill: #fff;
      }
    </style>
  </defs>
  <g id="privacy" transform="translate(-2187.317 -630.183)">
    <g id="M6M8TU.tif_1_" transform="translate(2187.317 630.183)">
      <g id="Group_7" data-name="Group 7">
        <path id="Path_14" data-name="Path 14" class="cls-1" d="M1585.768,103.538c-.175.19-.365.365-.526.57-2.659,3.244-5.815,5.727-9.994,6.662a10.533,10.533,0,0,1-4.748-.058,1.955,1.955,0,0,1,2.148-1.432,11.086,11.086,0,0,0,5.713-1.519,18.832,18.832,0,0,0,5.2-4.354c-1.257-1.2-2.484-2.367-3.77-3.58.321-.38.687-.789,1.052-1.227a22.205,22.205,0,0,1,4.5,4.325c.131.161.292.307.438.468A.5.5,0,0,0,1585.768,103.538Z" transform="translate(-1560.331 -91.368)"/>
        <path id="Path_15" data-name="Path 15" class="cls-1" d="M1504.407,73.426c-.453-.394-.862-.745-1.33-1.14,1.476-1.709,2.937-3.39,4.427-5.114a23.52,23.52,0,0,1-6.6-5.946,20.231,20.231,0,0,1,4.588-4.617,13.5,13.5,0,0,1,8.679-2.922,17.664,17.664,0,0,1,3.565.687.885.885,0,0,0,1.11-.292c1.14-1.359,2.323-2.688,3.492-4.032.263-.307.555-.614.847-.95.438.365.833.716,1.315,1.125Q1514.437,61.862,1504.407,73.426Zm12.726-17.357c-4.5-2-10.49.745-13.938,5.2a18.918,18.918,0,0,0,5.464,4.544c.57-.643,1.11-1.257,1.519-1.724a13.466,13.466,0,0,1-.76-2.484,4.236,4.236,0,0,1,5.932-4.281.763.763,0,0,0,.672-.015A15.248,15.248,0,0,0,1517.132,56.069Zm-2.484,2.834a2.58,2.58,0,0,0-3.068.833,2.323,2.323,0,0,0,0,2.747C1512.589,61.314,1513.582,60.145,1514.649,58.9Z" transform="translate(-1500.9 -49.1)"/>
      </g>
    </g>
  </g>
</svg>
