<svg xmlns="http://www.w3.org/2000/svg" viewBox="0 0 19.876 20.758">
  <defs>
    <style>
      .cls-1 {
        fill: #fff;
      }
    </style>
  </defs>
  <g id="reset" transform="translate(-2051.273 -114.242)">
    <g id="a6U4Gx.tif_1_" transform="translate(2051.273 114.242)">
      <g id="Group_3" data-name="Group 3">
        <path id="Path_5" data-name="Path 5" class="cls-1" d="M338.079,174.8c.646-.685,1.263-1.35,1.977-2.1.193,2.161.376,4.225.569,6.346-2.228.077-4.4.145-6.568.212a.939.939,0,0,1-.048-.106c.694-.743,1.389-1.485,2.083-2.238a7.058,7.058,0,0,0-7.542,1.119,7.256,7.256,0,1,0,12.027,5.546h2.575c.6,2.961-2.209,7.359-5.739,8.97a9.923,9.923,0,0,1-12.056-3.029A9.943,9.943,0,0,1,338.079,174.8Z" transform="translate(-323.357 -172.7)"/>
      </g>
    </g>
  </g>
</svg>
