<svg xmlns="http://www.w3.org/2000/svg" viewBox="0 0 30.136 39.263">
  <defs>
    <style>
      .cls-1 {
        fill: #fff;
      }
    </style>
  </defs>
  <g id="rewars" transform="translate(-0.175 -0.023)">
    <g id="Group_24" data-name="Group 24" transform="translate(0.175 0.023)">
      <path id="Path_26" data-name="Path 26" class="cls-1" d="M23.675,25.015l1,2.542c.948,2.409,1.9,4.827,2.852,7.236.328.85-.062,1.63-.877,1.692a1.994,1.994,0,0,1-.806-.168c-1.169-.434-2.338-.886-3.552-1.355-.168.337-.328.647-.478.957-.416.85-.841,1.692-1.249,2.542a1.191,1.191,0,0,1-1.187.824,1.215,1.215,0,0,1-1.072-.912c-1.169-2.976-2.356-5.943-3.534-8.919-.044-.124-.106-.239-.195-.434-.151.381-.283.691-.407,1.01l-3.295,8.4a1.16,1.16,0,0,1-1.063.859,1.128,1.128,0,0,1-1.134-.753c-.018-.035-.044-.08-.062-.115-.5-1.01-.983-2.011-1.479-3.02-.062-.133-.133-.257-.221-.416-.638.239-1.258.469-1.869.709-.549.213-1.107.407-1.647.638a1.265,1.265,0,0,1-1.515-.142,1.266,1.266,0,0,1-.151-1.515q1.86-4.7,3.711-9.415c.062-.151.115-.3.186-.487-.159-.053-.292-.106-.425-.142a3.254,3.254,0,0,1-2.693-3.932c.027-.31.027-.62.08-.93A2.362,2.362,0,0,0,1.86,17.6,10.367,10.367,0,0,1,.753,16.22a2.91,2.91,0,0,1,0-3.481,20.6,20.6,0,0,1,1.355-1.692A1.986,1.986,0,0,0,2.6,9.5C2.551,8.825,2.489,8.143,2.5,7.47A2.9,2.9,0,0,1,4.57,4.547a15.745,15.745,0,0,1,1.922-.514A2.113,2.113,0,0,0,7.98,2.962,14.88,14.88,0,0,1,9.061,1.3,2.879,2.879,0,0,1,12.506.207c.62.195,1.213.443,1.816.7A2.2,2.2,0,0,0,16.164.9,17.852,17.852,0,0,1,17.891.225a2.91,2.91,0,0,1,3.552,1.116,14.441,14.441,0,0,1,1.036,1.594A2.144,2.144,0,0,0,24,4.033a16.136,16.136,0,0,1,1.709.443,2.973,2.973,0,0,1,2.276,3.1,16.1,16.1,0,0,1-.106,1.851,2.077,2.077,0,0,0,.558,1.7,14.937,14.937,0,0,1,1.249,1.55,2.912,2.912,0,0,1,.009,3.587,15.607,15.607,0,0,1-1.275,1.585,2.127,2.127,0,0,0-.549,1.665,17.64,17.64,0,0,1,.035,2.56A2.514,2.514,0,0,1,26.3,24.236a20.488,20.488,0,0,1-1.975.62C24.117,24.9,23.914,24.944,23.675,25.015ZM25.685,8.223c.053-1.3-.035-1.426-1.1-1.7-.372-.1-.744-.195-1.116-.266A4.214,4.214,0,0,1,20.5,4.077c-.195-.345-.416-.682-.629-1.019-.523-.833-.726-.9-1.63-.549-.478.186-.957.372-1.435.567a4,4,0,0,1-3.1.027c-.585-.23-1.178-.478-1.771-.691s-.8-.151-1.169.372c-.292.425-.567.859-.824,1.311A4.236,4.236,0,0,1,6.97,6.265c-.576.115-1.143.292-1.7.461a.636.636,0,0,0-.487.7c.018.461,0,.921.062,1.373A4.555,4.555,0,0,1,3.6,12.828c-.328.337-.611.726-.9,1.089a.824.824,0,0,0-.009,1.134,12.47,12.47,0,0,0,.868,1.054,4.6,4.6,0,0,1,1.284,4.1c-.053.425-.044.85-.062,1.284a.708.708,0,0,0,.567.788c.469.133.93.283,1.408.372a4.469,4.469,0,0,1,3.312,2.391,9.974,9.974,0,0,0,.709,1.125c.381.54.585.6,1.2.381a13.223,13.223,0,0,0,1.275-.514,4.5,4.5,0,0,1,4.012.018,12.3,12.3,0,0,0,1.187.478c.673.248.9.168,1.3-.425.221-.328.443-.664.629-1.01A4.556,4.556,0,0,1,23.8,22.633a13.964,13.964,0,0,0,1.444-.4.59.59,0,0,0,.443-.638c-.018-.5,0-1.01-.062-1.5a4.486,4.486,0,0,1,1.2-3.87,10.718,10.718,0,0,0,.9-1.089.848.848,0,0,0,.009-1.275,11.785,11.785,0,0,0-.9-1.089,4.211,4.211,0,0,1-1.24-3.419C25.641,8.9,25.667,8.462,25.685,8.223ZM24.534,33.4c-.877-2.223-1.709-4.34-2.577-6.528a3.9,3.9,0,0,1-2.241,1.975,4.934,4.934,0,0,1-2.958-.5c.948,2.374,1.842,4.65,2.79,7.024.372-.762.7-1.435,1.036-2.1a1.2,1.2,0,0,1,1.763-.691C23.037,32.818,23.719,33.084,24.534,33.4ZM9.592,28.3c-.221.5-.443,1.01-.664,1.532-.443-.186-.824-.354-1.24-.531.275-.664.549-1.284.8-1.913.053-.133.124-.31.071-.416-.239-.443-.523-.868-.824-1.364C6.7,28.239,5.7,30.772,4.677,33.394c.824-.31,1.532-.593,2.25-.859a1.163,1.163,0,0,1,1.665.664c.337.682.673,1.373,1.054,2.143.868-2.2,1.692-4.3,2.533-6.448A3.292,3.292,0,0,1,9.592,28.3Z" transform="translate(-0.175 -0.023)"/>
      <path id="Path_27" data-name="Path 27" class="cls-1" d="M78.592,80.694a8.9,8.9,0,1,1,8.9-8.937A8.923,8.923,0,0,1,78.592,80.694Zm7.537-8.875a7.537,7.537,0,1,0-7.661,7.511A7.549,7.549,0,0,0,86.13,71.819Z" transform="translate(-63.542 -57.331)"/>
      <path id="Path_28" data-name="Path 28" class="cls-1" d="M76.689,339.431c-.186.425-.354.824-.54,1.258-.425-.177-.806-.345-1.249-.531.177-.416.345-.815.531-1.258C75.865,339.077,76.264,339.245,76.689,339.431Z" transform="translate(-68.282 -308.886)"/>
    </g>
  </g>
</svg>
