<svg xmlns="http://www.w3.org/2000/svg" viewBox="0 0 32.894 32.895">
  <defs>
    <style>
      .cls-1 {
        fill: #fff;
      }
    </style>
  </defs>
  <g id="setting" transform="translate(-665 -363)">
    <g id="Group_22" data-name="Group 22" transform="translate(665 363)">
      <path id="Path_23" data-name="Path 23" class="cls-1" d="M32.651,16.377c0,.761.044,1.529-.015,2.289a2.207,2.207,0,0,1-1.543,1.979c-.561.214-1.137.384-1.713.576a.8.8,0,0,0-.436,1.115c.251.421.51.842.753,1.27a2.317,2.317,0,0,1-.354,2.887q-1.462,1.5-2.946,2.954a2.337,2.337,0,0,1-2.762.421c-.517-.251-1.034-.517-1.551-.775a.877.877,0,0,0-1.071.5c-.118.465-.236.93-.362,1.388a2.359,2.359,0,0,1-2.378,1.876q-1.994.022-3.987,0a2.367,2.367,0,0,1-2.326-1.713c-.177-.524-.347-1.049-.524-1.573a.794.794,0,0,0-1.115-.428c-.421.251-.842.51-1.27.753a2.342,2.342,0,0,1-2.917-.377c-.967-.953-1.92-1.905-2.872-2.872a2.354,2.354,0,0,1-.45-2.85c.244-.495.495-.989.738-1.484a.866.866,0,0,0-.487-1.108c-.495-.133-1-.251-1.5-.4A2.336,2.336,0,0,1-.208,18.533q-.033-2.049,0-4.1a2.342,2.342,0,0,1,1.676-2.274c.532-.185,1.071-.354,1.61-.539a.8.8,0,0,0,.428-1.115c-.251-.421-.51-.842-.746-1.27A2.332,2.332,0,0,1,3.137,6.32q1.44-1.462,2.895-2.895a2.333,2.333,0,0,1,2.784-.443c.517.251,1.034.517,1.551.775a.882.882,0,0,0,1.078-.5c.126-.473.244-.953.369-1.425A2.344,2.344,0,0,1,14.147-.008q2.049-.033,4.1,0a2.317,2.317,0,0,1,2.223,1.639c.192.554.369,1.122.561,1.676a.806.806,0,0,0,1.1.4c.421-.251.842-.5,1.27-.746a2.334,2.334,0,0,1,2.887.347q1.5,1.462,2.946,2.954a2.318,2.318,0,0,1,.436,2.725c-.244.51-.5,1.012-.753,1.521a.853.853,0,0,0,.51,1.152c.443.118.879.229,1.322.34a2.382,2.382,0,0,1,1.92,2.459c.007.642,0,1.277,0,1.92Zm-8-11.416c-.834.495-1.632.96-2.415,1.44a.514.514,0,0,1-.569.007c-.7-.325-1.425-.6-2.127-.916a.706.706,0,0,1-.354-.347c-.3-.82-.569-1.647-.834-2.481a.386.386,0,0,0-.436-.332c-1.159.015-2.311.015-3.471,0a.345.345,0,0,0-.4.318c-.192.812-.421,1.617-.613,2.429a.533.533,0,0,1-.4.406c-.724.266-1.44.561-2.141.871a.592.592,0,0,1-.576.015c-.761-.4-1.536-.768-2.3-1.167a.367.367,0,0,0-.51.081c-.7.724-1.418,1.433-2.141,2.141-.2.192-.428.354-.628.517.539.908,1,1.706,1.477,2.488a.458.458,0,0,1,.03.5c-.332.724-.62,1.469-.945,2.193a.677.677,0,0,1-.325.332c-.842.3-1.7.583-2.548.857-.192.059-.281.14-.281.354q.011,1.772,0,3.544a.33.33,0,0,0,.3.377c.827.2,1.639.428,2.466.62a.492.492,0,0,1,.384.369c.281.731.569,1.462.893,2.178a.592.592,0,0,1-.007.576c-.288.546-.554,1.093-.827,1.647-.148.3-.436.62-.384.886s.414.517.65.761q1.1,1.119,2.2,2.23c.849-.5,1.654-.975,2.452-1.455a.474.474,0,0,1,.5-.015c.716.325,1.447.613,2.164.93a.736.736,0,0,1,.354.347c.3.834.576,1.669.849,2.511.066.207.148.3.384.3q1.772-.011,3.544,0a.3.3,0,0,0,.347-.273c.2-.834.428-1.661.635-2.5a.47.47,0,0,1,.347-.362c.731-.281,1.462-.569,2.178-.886a.61.61,0,0,1,.606.007c.753.391,1.521.761,2.267,1.145a.36.36,0,0,0,.51-.081c.842-.864,1.7-1.706,2.555-2.562a1.957,1.957,0,0,0,.155-.192c-.48-.812-.945-1.6-1.425-2.392a.492.492,0,0,1-.007-.539c.325-.716.606-1.447.93-2.164a.634.634,0,0,1,.325-.325c.834-.3,1.669-.576,2.511-.849.222-.074.31-.162.31-.406-.015-1.167-.015-2.341,0-3.508a.316.316,0,0,0-.3-.369c-.827-.2-1.639-.421-2.466-.628a.48.48,0,0,1-.377-.332c-.281-.761-.591-1.506-.916-2.245a.541.541,0,0,1,.007-.51q.432-.831.842-1.684c.148-.31.421-.642.384-.923s-.414-.487-.65-.724Z" transform="translate(0.225 0.025)"/>
      <path id="Path_24" data-name="Path 24" class="cls-1" d="M95.9,105.27a9.367,9.367,0,1,1,9.378,9.363A9.39,9.39,0,0,1,95.9,105.27Zm9.378-8.6a8.588,8.588,0,1,0,8.566,8.64A8.589,8.589,0,0,0,105.277,96.675Z" transform="translate(-88.801 -88.817)"/>
      <path id="Path_25" data-name="Path 25" class="cls-1" d="M140.118,132.963A7.159,7.159,0,1,1,133,125.8,7.168,7.168,0,0,1,140.118,132.963Zm-7.177,4.8a4.8,4.8,0,1,0-4.785-4.807A4.814,4.814,0,0,0,132.941,137.762Z" transform="translate(-116.494 -116.509)"/>
    </g>
  </g>
</svg>
