<svg xmlns="http://www.w3.org/2000/svg" viewBox="0 0 20.263 18.572">
  <defs>
    <style>
      .cls-1 {
        fill: #fff;
      }
    </style>
  </defs>
  <g id="sound" transform="translate(-1968 -648.929)">
    <g id="R1Q61q.tif_1_" transform="translate(1968 648.929)">
      <g id="Group_5" data-name="Group 5" transform="translate(0)">
        <path id="Path_9" data-name="Path 9" class="cls-1" d="M9.741,177.4h.353c.121.028.242.056.362.093a1.706,1.706,0,0,1,1.171,1.709v15.1a1.7,1.7,0,0,1-1.3,1.617l-.269.056H9.778c-.065-.009-.13-.028-.2-.037a1.46,1.46,0,0,1-.864-.437c-.362-.4-.725-.8-1.106-1.189a30.018,30.018,0,0,0-3.159-2.889,2.415,2.415,0,0,0-1.579-.52q-.683.014-1.366,0a1.684,1.684,0,0,1-1.672-1.329c-.009-.028-.028-.056-.037-.084v-5.574c.009-.037.028-.074.037-.111a1.639,1.639,0,0,1,1.487-1.319c.5-.037,1.013-.028,1.514-.019a2.5,2.5,0,0,0,1.644-.548,33.1,33.1,0,0,0,3.726-3.493,5.065,5.065,0,0,0,.427-.465,1.374,1.374,0,0,1,.743-.483C9.518,177.446,9.63,177.428,9.741,177.4Z" transform="translate(0.2 -177.4)"/>
        <path id="Path_10" data-name="Path 10" class="cls-1" d="M174.087,206.879c-.056.372-.093.743-.158,1.115a9.156,9.156,0,0,1-3.28,5.491c-.037.028-.074.056-.121.093-.307-.465-.613-.92-.929-1.384a7.621,7.621,0,0,0,0-11.8c.307-.455.6-.91.929-1.394.065.056.13.093.186.139a9.221,9.221,0,0,1,3.326,6.188c.019.121.028.242.046.372Z" transform="translate(-153.824 -196.993)"/>
        <path id="Path_11" data-name="Path 11" class="cls-1" d="M150.129,238.238c-.307-.465-.622-.929-.929-1.394a4.241,4.241,0,0,0,0-6.15c.307-.465.613-.929.929-1.394A5.853,5.853,0,0,1,150.129,238.238Z" transform="translate(-135.32 -224.478)"/>
      </g>
    </g>
  </g>
</svg>
