<svg xmlns="http://www.w3.org/2000/svg" viewBox="0 0 14.089 19.359">
  <defs>
    <style>
      .cls-1 {
        fill: #fff;
      }
    </style>
  </defs>
  <g id="terms" transform="translate(-2249.966 -636.217)">
    <g id="jSJVJ2.tif_1_" transform="translate(2249.966 636.217)">
      <g id="Group_8" data-name="Group 8">
        <path id="Path_17" data-name="Path 17" class="cls-1" d="M1931.419,90.4h7.844c1.335,1.385,2.7,2.77,4.005,4.189a1.943,1.943,0,0,1,.5,1.218c.034,3.8.017,7.61.017,11.4,0,1.619-.217,1.953-1.7,2.553H1931.4c-1.485-.6-1.7-.918-1.7-2.553V92.953C1929.717,91.318,1929.95,90.984,1931.419,90.4Zm6.876,1.419c-2.136,0-4.189.017-6.241-.017-.751-.017-1.018.234-1.018,1.018q.05,7.259,0,14.519c0,.768.234,1.035,1,1.018,3.138-.033,6.275-.033,9.429,0,.751,0,1.018-.234,1.018-1.018-.034-3.538-.017-7.059-.017-10.6a6.121,6.121,0,0,0-.067-.7h-4.105Zm1.4,1.085v1.736h1.669C1940.8,94.055,1940.281,93.521,1939.7,92.9Z" transform="translate(-1929.7 -90.4)"/>
        <path id="Path_18" data-name="Path 18" class="cls-1" d="M1957.26,135.8h-7.36v1.235h7.36Zm-7.343,4.756h7.343v-1.235h-7.343Zm7.393,3.538c-.017-.451-.033-.851-.05-1.235h-7.326v1.235Z" transform="translate(-1946.529 -128.223)"/>
        <path id="Path_19" data-name="Path 19" class="cls-1" d="M1957.26,135.8v1.235h-7.36V135.8Z" transform="translate(-1946.529 -128.223)"/>
        <path id="Path_20" data-name="Path 20" class="cls-1" d="M1950,158.135V156.9h7.343v1.235Z" transform="translate(-1946.612 -145.802)"/>
        <path id="Path_21" data-name="Path 21" class="cls-1" d="M1957.393,179.335H1950V178.1h7.326C1957.343,178.484,1957.36,178.884,1957.393,179.335Z" transform="translate(-1946.612 -163.464)"/>
      </g>
    </g>
  </g>
</svg>
