<svg xmlns="http://www.w3.org/2000/svg" viewBox="0 0 23.94 16.828">
  <defs>
    <style>
      .cls-1 {
        fill: #fff;
      }
    </style>
  </defs>
  <g id="vibrate" transform="translate(-2100.828 -633)">
    <g id="hk1ZH1.tif_1_" transform="translate(2100.828 633)">
      <g id="Group_4" data-name="Group 4" transform="translate(0 0)">
        <path id="Path_6" data-name="Path 6" class="cls-1" d="M953.058,11.618v7.1c0,.833-.363,1.2-1.2,1.2H945.1c-.839,0-1.2-.357-1.2-1.2V4.44a1.015,1.015,0,0,1,1.134-1.14h6.884a1.015,1.015,0,0,1,1.134,1.14c.006,2.4.006,4.785.006,7.178Zm-2.023-6.289h-5.111V16.022h5.111Zm-2.549,13.53a.746.746,0,0,0,.758-.745.761.761,0,1,0-1.522.006A.746.746,0,0,0,948.485,18.859Z" transform="translate(-936.565 -3.089)"/>
        <path id="Path_7" data-name="Path 7" class="cls-1" d="M1134.8,13.816c-.683-.714-1.328-1.4-2-2.1.664-.7,1.322-1.391,2-2.1-.67-.7-1.328-1.4-2-2.1.67-.708,1.334-1.4,2-2.1-.677-.708-1.328-1.4-2-2.1.332-.345.658-.683.977-1.021l1.578-1.654a1.031,1.031,0,0,1,1.516-.15,1.024,1.024,0,0,1-.075,1.547c-.388.407-.777.814-1.165,1.228a.311.311,0,0,0-.038.088l.984,1.021c.326.338.645.683,1,1.046-.658.7-1.322,1.384-2,2.1.67.7,1.328,1.4,2,2.1-.67.708-1.334,1.4-2,2.1.677.708,1.328,1.4,2,2.1-.194.207-.382.4-.564.6l-2.011,2.1a1.011,1.011,0,1,1-1.441-1.4C1133.965,14.692,1134.379,14.267,1134.8,13.816Z" transform="translate(-1113.633 -0.207)"/>
        <path id="Path_8" data-name="Path 8" class="cls-1" d="M826.806,3.038c.921-.958,1.8-1.9,2.712-2.825A.974.974,0,0,1,830.9.232a.984.984,0,0,1,.031,1.384c-.363.407-.745.789-1.121,1.184-.069.075-.138.15-.225.251.664.7,1.315,1.378,1.992,2.092-.664.7-1.322,1.384-2,2.1.67.7,1.328,1.4,2,2.1-.677.708-1.334,1.4-2,2.1.67.708,1.328,1.4,2,2.1-.119.125-.232.251-.345.37-.752.783-1.5,1.572-2.249,2.355a1.008,1.008,0,1,1-1.453-1.384c.413-.438.833-.877,1.272-1.334-.67-.708-1.328-1.4-2-2.1.67-.708,1.334-1.4,2-2.1l-2-2.1c.664-.7,1.328-1.391,2-2.1C828.134,4.435,827.483,3.753,826.806,3.038Z" transform="translate(-826.8 0.066)"/>
      </g>
    </g>
  </g>
</svg>
