<svg xmlns="http://www.w3.org/2000/svg" viewBox="0 0 19.516 19.524">
  <defs>
    <style>
      .cls-1 {
        fill: #fff;
      }
    </style>
  </defs>
  <g id="filter" transform="translate(0.016)">
    <g id="Group_30" data-name="Group 30" transform="translate(-0.016)">
      <path id="Path_45" data-name="Path 45" class="cls-1" d="M18.806,0a.947.947,0,0,1,.684.8.837.837,0,0,1-.291.757c-1.257,1.247-2.5,2.5-3.756,3.756-.961.961-1.917,1.922-2.883,2.878a.508.508,0,0,0-.165.4q.007,4.987,0,9.969a.865.865,0,0,1-1.024.951.946.946,0,0,1-.48-.243c-1.184-1.17-2.359-2.349-3.538-3.528a.994.994,0,0,1-.286-.747c0-2.135,0-4.271,0-6.4a.531.531,0,0,0-.165-.4C4.722,6.008,2.562,3.81.354,1.665A.947.947,0,0,1,.655,0Z" transform="translate(0.016)"/>
    </g>
  </g>
</svg>
