<svg xmlns="http://www.w3.org/2000/svg" viewBox="0 0 19.71 15">
  <defs>
    <style>
      .cls-1 {
        fill: #fff;
      }
    </style>
  </defs>
  <g id="Players" transform="translate(0.008 -0.024)">
    <path id="Path_13" data-name="Path 13" class="cls-1" d="M122.4,14.691a45.02,45.02,0,0,1-10.952,0c-.023-.567-.062-1.108-.058-1.644a8.711,8.711,0,0,1,.548-3.153,5.167,5.167,0,0,1,2.829-2.979c.054-.023.1-.05.162-.081-.193-.154-.394-.289-.563-.452a3.476,3.476,0,0,1-1.077-3.593,3.522,3.522,0,0,1,2.717-2.64,3.776,3.776,0,0,1,4.639,2.763,3.61,3.61,0,0,1-1.459,3.759c-.066.046-.135.1-.193.135.378.216.764.405,1.115.648a5.3,5.3,0,0,1,2.1,3.134,10.3,10.3,0,0,1,.251,3.52C122.446,14.29,122.423,14.475,122.4,14.691Z" transform="translate(-107.102 0)"/>
    <path id="Path_14" data-name="Path 14" class="cls-1" d="M344.632,8.676a2.9,2.9,0,0,1,4.025-.023,2.641,2.641,0,0,1-.5,4.125l.212.1a3.9,3.9,0,0,1,2.161,2.771,8.243,8.243,0,0,1,.151,2.682.186.186,0,0,1-.2.2,18.184,18.184,0,0,1-3.006.035c-.17-.012-.228-.073-.262-.247a5.536,5.536,0,0,0-2.041-3.454c-.266-.2-.575-.359-.868-.54a3.994,3.994,0,0,0,1.308-2.763A3.491,3.491,0,0,0,344.632,8.676Z" transform="translate(-331.021 -7.526)"/>
    <path id="Path_15" data-name="Path 15" class="cls-1" d="M6.429,14.021a5.563,5.563,0,0,0-2.921,4.037c-.031.139-.081.185-.2.185-.753.012-1.5.031-2.254.031-.274,0-.552-.042-.826-.062-.112-.008-.174-.05-.185-.174a7.343,7.343,0,0,1,.374-3.415,3.725,3.725,0,0,1,2.03-2.111.583.583,0,0,0,.069-.035c.012-.008.019-.015.042-.035l-.135-.1a2.648,2.648,0,0,1-1.065-2.8A2.727,2.727,0,0,1,3.593,7.565,2.8,2.8,0,0,1,6,8.252a.358.358,0,0,1,.054.054.1.1,0,0,1,.015.035A3.934,3.934,0,0,0,6.429,14.021Z" transform="translate(0 -7.21)"/>
  </g>
</svg>
