<svg xmlns="http://www.w3.org/2000/svg" viewBox="0 0 200.5 34.852">
  <defs>
    <style>
      .cls-1 {
        fill: #21a4f4;
      }

      .cls-2 {
        fill: #24c1ff;
      }

      .cls-3, .cls-4 {
        fill: #fff;
      }

      .cls-3 {
        font-size: 14px;
        font-family: HelveticaNeue-Bold, Helvetica Neue;
        font-weight: 700;
      }
    </style>
  </defs>
  <g id="sharesocial" transform="translate(-3 -0.2)">
    <path id="Path_373" data-name="Path 373" class="cls-1" d="M21.264.2C14.484.2,3,1.476,3,17.427c0,16.03,13,17.546,18.264,17.546H38.411V.2Z" transform="translate(0 0)"/>
    <path id="Path_374" data-name="Path 374" class="cls-2" d="M210.65.2H47.4V35.052H210.65a1.8,1.8,0,0,0,1.834-1.834V2.034A1.758,1.758,0,0,0,210.65.2Z" transform="translate(-8.989 0)"/>
    <text id="Invite_to_Table" data-name="Invite to Table" class="cls-3" transform="translate(74.492 21.43)"><tspan x="0" y="0">Invite to Table</tspan></text>
    <g id="Group_124" data-name="Group 124" transform="translate(12.238 9.43)">
      <path id="Path_385" data-name="Path 385" class="cls-4" d="M13.18,17.447a3.453,3.453,0,0,1-3.432-3.876.431.431,0,0,0-.317-.549c-1.035-.433-2.059-.9-3.1-1.32a.706.706,0,0,0-.581.084,3.5,3.5,0,0,1-4.668-.148A3.464,3.464,0,0,1,5.471,6.307a.6.6,0,0,0,.75.032C7.3,5.747,8.386,5.177,9.484,4.617a.482.482,0,0,0,.3-.623A3.468,3.468,0,1,1,16.655,3.4,3.332,3.332,0,0,1,14.88,6.38a3.285,3.285,0,0,1-3.506-.063A.714.714,0,0,0,10.53,6.3c-1.056.612-2.154,1.183-3.242,1.742-.317.158-.486.327-.348.686a.277.277,0,0,1,.021.158c-.232.845.327,1.1.972,1.341.834.317,1.647.7,2.471,1.056a.625.625,0,0,0,.718-.074,3.375,3.375,0,0,1,4.076-.063,3.469,3.469,0,0,1-2.017,6.3Zm.011-12.26a1.842,1.842,0,0,0,1.816-1.764,1.817,1.817,0,1,0-3.633-.042A1.835,1.835,0,0,0,13.191,5.187Zm-.011,6.98a1.816,1.816,0,1,0,.011,3.633A1.859,1.859,0,0,0,15,13.973,1.814,1.814,0,0,0,13.18,12.167ZM1.68,9.126a1.825,1.825,0,0,0,1.848,1.827A1.847,1.847,0,0,0,5.3,9.158a1.828,1.828,0,0,0-1.8-1.827A1.834,1.834,0,0,0,1.68,9.126Z" transform="translate(-0.001 0.116)"/>
    </g>
  </g>
</svg>
