<svg xmlns="http://www.w3.org/2000/svg" viewBox="0 0 30.384 15">
  <defs>
    <style>
      .cls-1 {
        fill: #fff;
      }
    </style>
  </defs>
  <g id="table" transform="translate(-0.093 0.025)">
    <path id="Path_7" data-name="Path 7" class="cls-1" d="M15.28-.024h7.67a7.493,7.493,0,1,1,.062,14.985q-7.721.025-15.446.008A7.495,7.495,0,0,1,6.459.067,8.17,8.17,0,0,1,7.689-.02C10.219-.028,12.75-.024,15.28-.024Zm0,13.014c2.53,0,5.061,0,7.591,0a6.552,6.552,0,0,0,.983-.074A5.511,5.511,0,0,0,22.9,1.963q-7.6,0-15.2,0a6.876,6.876,0,0,0-1,.078,5.507,5.507,0,0,0,.979,10.941Q11.474,12.993,15.28,12.99Z" transform="translate(0 0)"/>
    <path id="Path_8" data-name="Path 8" class="cls-1" d="M165.885,133.039v1.333c0,.374-.167.541-.541.544-.47,0-.937,0-1.407,0a.472.472,0,0,1-.537-.533v-2.718a.475.475,0,0,1,.533-.537c.474,0,.948,0,1.426,0a.467.467,0,0,1,.526.526C165.888,132.113,165.888,132.576,165.885,133.039Z" transform="translate(-158.257 -125.543)"/>
    <path id="Path_9" data-name="Path 9" class="cls-1" d="M508.1,132.92v-1.37a.459.459,0,0,1,.522-.522c.474,0,.952,0,1.426,0a.466.466,0,0,1,.522.526v2.74a.463.463,0,0,1-.526.522c-.474,0-.952,0-1.426,0a.459.459,0,0,1-.518-.526Z" transform="translate(-485.003 -125.447)"/>
    <path id="Path_10" data-name="Path 10" class="cls-1" d="M422,132.924v-1.37a.457.457,0,0,1,.518-.526c.474,0,.948,0,1.426,0a.469.469,0,0,1,.526.522c0,.915,0,1.826,0,2.74a.468.468,0,0,1-.526.526q-.722.006-1.444,0a.453.453,0,0,1-.5-.5C422,133.85,422,133.387,422,132.924Z" transform="translate(-403.39 -125.447)"/>
    <path id="Path_11" data-name="Path 11" class="cls-1" d="M335.757,132.92c0-.452,0-.9,0-1.352,0-.378.163-.537.544-.541.47,0,.937,0,1.407,0a.451.451,0,0,1,.515.511q.006,1.389,0,2.777a.444.444,0,0,1-.5.5q-.722.006-1.444,0a.46.46,0,0,1-.518-.526Z" transform="translate(-321.635 -125.447)"/>
    <path id="Path_12" data-name="Path 12" class="cls-1" d="M252.2,132.949V134.3c0,.381-.163.541-.541.544-.474,0-.952,0-1.426,0a.45.45,0,0,1-.5-.5q-.006-1.389,0-2.777a.453.453,0,0,1,.518-.507c.474,0,.952,0,1.426,0a.46.46,0,0,1,.522.526C252.2,132.039,252.2,132.494,252.2,132.949Z" transform="translate(-240.093 -125.476)"/>
  </g>
</svg>
