<svg xmlns="http://www.w3.org/2000/svg" viewBox="0 0 200.5 34.852">
  <defs>
    <style>
      .cls-1 {
        fill: #4fc449;
      }

      .cls-2 {
        fill: #98e56e;
      }

      .cls-3, .cls-4 {
        fill: #fff;
      }

      .cls-3 {
        font-size: 14px;
        font-family: HelveticaNeue-Bold, Helvetica Neue;
        font-weight: 700;
      }
    </style>
  </defs>
  <g id="whatsup" transform="translate(-3 -0.2)">
    <path id="Path_373" data-name="Path 373" class="cls-1" d="M21.264.2C14.484.2,3,1.476,3,17.427c0,16.03,13,17.546,18.264,17.546H38.411V.2Z" transform="translate(0 0)"/>
    <path id="Path_374" data-name="Path 374" class="cls-2" d="M210.65.2H47.4V35.052H210.65a1.8,1.8,0,0,0,1.834-1.834V2.034A1.758,1.758,0,0,0,210.65.2Z" transform="translate(-8.989 0)"/>
    <text id="Invite_to_Table_" data-name="Invite to Table " class="cls-3" transform="translate(72.492 21.43)"><tspan x="0" y="0">Invite to Table </tspan></text>
    <g id="Group_126" data-name="Group 126" transform="translate(13.66 9.625)">
      <path id="Path_386" data-name="Path 386" class="cls-4" d="M16.377,7.565V8.5a1.017,1.017,0,0,0-.026.151,8.005,8.005,0,0,1-11.682,6.4.368.368,0,0,0-.317-.026c-.513.172-1.03.333-1.546.5q-1.077.343-2.154.682c-.18.057-.359.112-.552.172.161-.479.312-.934.468-1.389.307-.905.614-1.814.926-2.716a.328.328,0,0,0-.034-.291c-.143-.265-.289-.533-.411-.809A7.924,7.924,0,0,1,.561,6.423,7.738,7.738,0,0,1,2.054,3.2,7.953,7.953,0,0,1,7.331.175C7.518.152,7.705.123,7.9.1h.963c.042.008.083.021.125.026.3.042.611.065.913.122a8,8,0,0,1,5.467,3.926A7.609,7.609,0,0,1,16.3,6.992C16.325,7.18,16.351,7.372,16.377,7.565ZM2.1,14.416c.135-.042.247-.073.356-.107.692-.221,1.387-.437,2.079-.663a.329.329,0,0,1,.291.039c.278.156.557.317.848.448a6.717,6.717,0,0,0,5.508-.042,6.682,6.682,0,0,0,1.462-.911,6.879,6.879,0,0,0,1.478-1.7,6.341,6.341,0,0,0,.9-2.42,6.482,6.482,0,0,0-.794-4.311,6.7,6.7,0,0,0-1.7-1.959,6.726,6.726,0,0,0-8.74.369A6.786,6.786,0,0,0,2.53,4.742,6.579,6.579,0,0,0,1.674,8.59a6.39,6.39,0,0,0,.346,1.621,6.944,6.944,0,0,0,.861,1.668.187.187,0,0,1,.018.141c-.2.6-.4,1.189-.6,1.785C2.236,14,2.174,14.2,2.1,14.416Z" transform="translate(0)"/>
      <path id="Path_387" data-name="Path 387" class="cls-4" d="M170.175,164.944h.364a.277.277,0,0,1,.273.164c.117.255.232.513.343.77s.216.539.338.8a.494.494,0,0,1-.065.536c-.13.177-.271.349-.414.515a.3.3,0,0,0-.052.409,5.655,5.655,0,0,0,1.434,1.611,6.194,6.194,0,0,0,1.189.663c.25.112.341.091.518-.117s.356-.435.531-.656c.138-.174.245-.221.437-.133.539.25,1.072.507,1.608.76a.254.254,0,0,1,.156.26,1.612,1.612,0,0,1-.213.9,2.054,2.054,0,0,1-.489.471,1.959,1.959,0,0,1-1.116.377,2.417,2.417,0,0,1-.8-.13c-.466-.146-.924-.32-1.379-.5a5.051,5.051,0,0,1-1.314-.8,9.845,9.845,0,0,1-1.928-2.162,3.8,3.8,0,0,1-.661-1.454,2.117,2.117,0,0,1,.507-1.91,1.438,1.438,0,0,1,.328-.289,2,2,0,0,1,.4-.125A.23.23,0,0,0,170.175,164.944Z" transform="translate(-164.395 -160.512)"/>
    </g>
  </g>
</svg>
