<svg xmlns="http://www.w3.org/2000/svg" viewBox="0 0 20.697 21">
  <defs>
    <style>
      .cls-1 {
        fill: #fff;
      }
    </style>
  </defs>
  <g id="add" transform="translate(-0.002)">
    <g id="Group_42" data-name="Group 42" transform="translate(0.002)">
      <path id="Path_64" data-name="Path 64" class="cls-1" d="M87.779,0h.451a1.683,1.683,0,0,1,1.181,1.452c.029.176.062.349.09.525.115.636.23,1.271.345,1.924.361,0,.71,0,1.058,0a1.09,1.09,0,0,1,.927.472,1.448,1.448,0,0,1,.267.886c0,.915,0,1.833,0,2.748,0,.057-.008.119-.012.193H86.848c-.381,0-.5.115-.5.5v4.491c0,.4.111.509.513.509H92.09c0,1.054.025,2.079-.008,3.1a1.165,1.165,0,0,1-1.218,1.107H81.348a5.2,5.2,0,0,0-1.526-5.262,5.5,5.5,0,0,0-5.353-1.3c0-.062-.012-.107-.012-.156,0-1.989,0-3.979,0-5.968A1.415,1.415,0,0,1,75.511,3.81q5.1-1.575,10.2-3.154C86.405.443,87.09.217,87.779,0Zm1.308,3.892c-.119-.66-.23-1.312-.357-1.961a3.764,3.764,0,0,0-.221-.824.53.53,0,0,0-.7-.324L78.251,3.745c-.119.037-.242.078-.361.119,0,.008,0,.016,0,.029Z" transform="translate(-71.402)"/>
      <path id="Path_65" data-name="Path 65" class="cls-1" d="M4.2,302.156c-.365-.082-.738-.139-1.091-.254a4.475,4.475,0,0,1-3.088-4.647,4.548,4.548,0,0,1,3.691-3.979,4.638,4.638,0,0,1,5.324,3.068,4.457,4.457,0,0,1-3.183,5.644c-.262.07-.533.111-.8.168ZM4.19,298.1v1.325a.426.426,0,0,0,.246.414.432.432,0,0,0,.623-.41c.008-.435,0-.87,0-1.329h.217c.377,0,.751,0,1.128,0a.429.429,0,0,0,.414-.566.448.448,0,0,0-.459-.3c-.427,0-.857,0-1.292,0,0-.053-.008-.086-.008-.119,0-.41,0-.82,0-1.23a.433.433,0,0,0-.865,0c-.008.144,0,.287,0,.431v.927H2.906a.45.45,0,0,0-.509.439c0,.258.2.431.513.435h.451C3.632,298.1,3.894,298.1,4.19,298.1Z" transform="translate(-0.002 -281.156)"/>
      <path id="Path_66" data-name="Path 66" class="cls-1" d="M387.679,222.3H382.7v-4h4.979Zm-3.371-1.989a1.694,1.694,0,0,0,.025.205.664.664,0,0,0,.751.541.755.755,0,0,0,.546-.734.764.764,0,0,0-.517-.775C384.706,219.44,384.32,219.789,384.308,220.314Z" transform="translate(-367.003 -209.346)"/>
    </g>
  </g>
</svg>
