<svg xmlns="http://www.w3.org/2000/svg" viewBox="0 0 23.695 23.927">
  <defs>
    <style>
      .cls-1 {
        fill: #fff;
      }
    </style>
  </defs>
  <g id="message" transform="translate(-412.436 -435.184)">
    <path id="Path_3" data-name="Path 3" class="cls-1" d="M5.483,18.556a19.253,19.253,0,0,1-2-.2A4.4,4.4,0,0,1-.031,14.072Q-.052,9.313.025,4.553A4.472,4.472,0,0,1,4.848-.1c4.752.014,9.49.056,14.242.1a4.514,4.514,0,0,1,4.569,4.639c0,3.06-.014,6.106-.056,9.166A4.532,4.532,0,0,1,18.7,18.6c-1.8,0-3.624-.056-5.429-.028a1.7,1.7,0,0,0-1.086.437c-1.438,1.382-2.834,2.806-4.244,4.23a1.393,1.393,0,0,1-1.636.479,1.42,1.42,0,0,1-.832-1.495C5.5,21.01,5.483,19.8,5.483,18.556Zm2.637.776C9.135,18.316,10,17.47,10.841,16.6a1.989,1.989,0,0,1,1.608-.677c2.186.042,4.371.042,6.557.028a1.818,1.818,0,0,0,1.96-1.918c.028-3.1.056-6.2.056-9.293a1.874,1.874,0,0,0-2.087-2.1q-7.128-.063-14.285-.085a1.865,1.865,0,0,0-2,1.974q-.042,4.653-.056,9.293a1.884,1.884,0,0,0,2.045,2.073c.663.014,1.311.014,1.974.014,1.029.014,1.481.494,1.509,1.523C8.134,17.992,8.12,18.556,8.12,19.332Z" transform="translate(412.472 435.284)"/>
    <path id="Path_4" data-name="Path 4" class="cls-1" d="M34,58.238a1.764,1.764,0,0,1-1.8-1.763A1.831,1.831,0,0,1,33.949,54.7a1.781,1.781,0,0,1,1.791,1.777A1.739,1.739,0,0,1,34,58.238Z" transform="translate(384.782 388.213)"/>
    <path id="Path_5" data-name="Path 5" class="cls-1" d="M108.6,57.02a1.763,1.763,0,0,1,3.525.071,1.81,1.81,0,0,1-1.777,1.749A1.773,1.773,0,0,1,108.6,57.02Z" transform="translate(319.156 387.696)"/>
    <path id="Path_6" data-name="Path 6" class="cls-1" d="M73.924,56.781a1.732,1.732,0,0,1-1.8,1.734,1.763,1.763,0,1,1,1.8-1.734Z" transform="translate(351.97 387.964)"/>
  </g>
</svg>
