<svg xmlns="http://www.w3.org/2000/svg" viewBox="0 0 31.57 29.129">
  <defs>
    <style>
      .cls-1 {
        fill: #fff;
      }
    </style>
  </defs>
  <g id="share" transform="translate(-409 -492)">
    <path id="Path_1" data-name="Path 1" class="cls-1" d="M123.067,8.777a6.175,6.175,0,0,1-1.462,1.669c-1.341,1.367-2.7,2.713-4.055,4.065-.731.731-1.457,1.462-2.2,2.184a1.081,1.081,0,0,1-1.2.227,1.037,1.037,0,0,1-.777-.978c-.02-1.109-.015-2.219-.025-3.328v-.434a.823.823,0,0,0-.156-.035c-1.553.02-3.112.015-4.665.071a13.4,13.4,0,0,0-3.278.53,6.444,6.444,0,0,0-3.359,2.012,6.526,6.526,0,0,0-1.281,2.945,17.887,17.887,0,0,0-.025,5.82c.061.484-.242.822-.7.731a.748.748,0,0,1-.434-.3c-.449-.716-.908-1.432-1.3-2.184a22.349,22.349,0,0,1-1.084-2.406A11.133,11.133,0,0,1,96.4,14.44a11.415,11.415,0,0,1,.893-3.883,7.858,7.858,0,0,1,2.683-3.238,13.064,13.064,0,0,1,5.184-2.027,40.9,40.9,0,0,1,7.489-.429c.227,0,.545.066.651-.05.121-.136.061-.439.066-.671.01-1.019.005-2.032.02-3.051a1.017,1.017,0,0,1,.706-.973,1.1,1.1,0,0,1,1.246.192c.565.53,1.1,1.079,1.649,1.624q1.611,1.611,3.223,3.217c.837.837,1.679,1.669,2.5,2.517a2.935,2.935,0,0,1,.353.6C123.067,8.439,123.067,8.605,123.067,8.777Z" transform="translate(317.502 491.992)"/>
    <path id="Path_2" data-name="Path 2" class="cls-1" d="M0,52.98c.045-.212.1-.424.141-.635A5.484,5.484,0,0,1,5.467,48.1c1.573.01,3.142,0,4.715,0,.474,0,.746.272.706.686a.512.512,0,0,1-.348.474c-.615.242-1.225.5-1.841.751a.381.381,0,0,0-.111.055,2.949,2.949,0,0,1-2.012.464,12,12,0,0,0-1.412.03A2.929,2.929,0,0,0,2.8,52.108a2.969,2.969,0,0,0-.378,1.573q-.008,7.776,0,15.558a3.032,3.032,0,0,0,2.345,3.066,2.844,2.844,0,0,0,.777.081q7.807.008,15.608,0a3.021,3.021,0,0,0,2.859-1.8,3.08,3.08,0,0,0,.277-1.4c0-1.246.01-2.486-.005-3.732a.841.841,0,0,1,.494-.822,9.981,9.981,0,0,0,.948-.661.6.6,0,0,1,.968.4,1.352,1.352,0,0,1,.01.2c0,1.553-.005,3.112,0,4.665a5.239,5.239,0,0,1-.918,3.137,5.353,5.353,0,0,1-4.266,2.411c-.151.005-.3.01-.454.01H5.638A5.473,5.473,0,0,1,.076,70.207c-.015-.1-.05-.192-.071-.287Q0,61.455,0,52.98Z" transform="translate(409 446.327)"/>
  </g>
</svg>
