<svg id="p9Xn0B.tif_1_" xmlns="http://www.w3.org/2000/svg" viewBox="0 0 22 21.513">
  <defs>
    <style>
      .cls-1 {
        fill: #fff;
      }
    </style>
  </defs>
  <g id="Group_36" data-name="Group 36">
    <path id="Path_55" data-name="Path 55" class="cls-1" d="M0,120.4V106.514a.2.2,0,0,0,.039-.059,1.535,1.535,0,0,1,1.6-1.2c.65,0,1.305,0,1.956,0a2.3,2.3,0,0,1,.23.02c-.122.205-.225.381-.328.552-.2.328-.406.65-.582.988a.615.615,0,0,0,.513.988,2.588,2.588,0,0,0,.391.02h17.14v2.552H20.68c-1.892,0-3.779-.015-5.671,0a3.833,3.833,0,0,0,.1,7.666c1.868.01,3.73,0,5.6,0h.284V120.9c0,.582-.137.719-.719.719H3.134c-.548,0-1.09,0-1.638,0A1.5,1.5,0,0,1,.1,120.609,1.4,1.4,0,0,1,0,120.4Z" transform="translate(0 -100.11)"/>
    <path id="Path_56" data-name="Path 56" class="cls-1" d="M169.778,0c.9.523,1.794,1.051,2.694,1.569L177.9,4.708c.425.244.489.474.244.9-.176.308-.352.626-.543.929a.339.339,0,0,1-.235.152q-5.9.007-11.8,0a.211.211,0,0,1-.068-.02,1.721,1.721,0,0,1,.088-.191q1.767-3.065,3.544-6.126A2.179,2.179,0,0,1,169.484,0C169.582,0,169.68,0,169.778,0Z" transform="translate(-157.409)"/>
    <path id="Path_57" data-name="Path 57" class="cls-1" d="M264.248,235.745c-.02.039-.044.083-.064.122a1.016,1.016,0,0,1-.992.66c-1.907,0-3.813.01-5.72,0a2.809,2.809,0,0,1,0-5.617c1.907-.01,3.813,0,5.72,0a1.1,1.1,0,0,1,1.056.782Zm-6.145-2.029a.752.752,0,0,0-.753-.763.763.763,0,1,0,0,1.525A.752.752,0,0,0,258.1,233.716Z" transform="translate(-242.248 -219.612)"/>
    <path id="Path_58" data-name="Path 58" class="cls-1" d="M96.158,0l1.217.7c-.039.078-.073.152-.112.215-1.071,1.853-2.141,3.7-3.2,5.559a.371.371,0,0,1-.381.22c-.582-.015-1.164,0-1.78,0,.054-.1.083-.176.122-.244q1.745-3.014,3.5-6.033a2.239,2.239,0,0,1,.4-.411Z" transform="translate(-87.407)"/>
  </g>
</svg>
