<svg xmlns="http://www.w3.org/2000/svg" viewBox="0 0 22 22.32">
  <defs>
    <style>
      .cls-1 {
        fill: #fff;
      }
    </style>
  </defs>
  <g id="withdraw" transform="translate(-0.002 -0.1)">
    <path id="Path_67" data-name="Path 67" class="cls-1" d="M93.111,8.611V5.69a1.539,1.539,0,0,0-.283-.942,1.153,1.153,0,0,0-.985-.5c-.371,0-.737,0-1.125,0-.122-.693-.244-1.369-.366-2.045-.035-.187-.065-.371-.1-.558A1.783,1.783,0,0,0,89,.1h-.48c-.733.231-1.461.471-2.193.7L75.478,4.159a1.508,1.508,0,0,0-1.121,1.509c0,2.115,0,4.229,0,6.344,0,.048.009.1.013.166a5.854,5.854,0,0,1,5.69,1.382,5.537,5.537,0,0,1,1.622,5.594H91.8a1.239,1.239,0,0,0,1.295-1.177c.039-1.086.009-2.176.009-3.3H87.547c-.427,0-.545-.118-.545-.541V9.361c0-.414.118-.536.528-.536H93.1C93.1,8.733,93.111,8.672,93.111,8.611ZM78.02,4.234c0-.009,0-.017,0-.031.126-.044.253-.087.384-.126Q83.481,2.5,88.559.928a.562.562,0,0,1,.746.344,4,4,0,0,1,.235.876c.135.689.253,1.382.379,2.084Z" transform="translate(-71.112)"/>
    <path id="Path_68" data-name="Path 68" class="cls-1" d="M3.944,293.282a4.84,4.84,0,0,0-3.924,4.229,4.758,4.758,0,0,0,3.283,4.94c.375.122.772.183,1.16.27h.916c.283-.057.567-.1.846-.179a4.748,4.748,0,0,0,3.384-6A4.938,4.938,0,0,0,3.944,293.282Zm2.865,5.132c-.214,0-.427,0-.641,0v0H3.08c-.323-.009-.528-.187-.528-.458a.483.483,0,0,1,.541-.467H6.76a.471.471,0,0,1,.488.323A.456.456,0,0,1,6.808,298.414Z" transform="translate(0 -280.302)"/>
    <path id="Path_69" data-name="Path 69" class="cls-1" d="M382.8,222.556h5.293V218.3H382.8Zm2.559-2.926a.812.812,0,0,1,.549.824.8.8,0,0,1-.58.78.708.708,0,0,1-.8-.576,1.206,1.206,0,0,1-.026-.218C384.518,219.883,384.928,219.512,385.359,219.63Z" transform="translate(-366.107 -208.686)"/>
  </g>
</svg>
