<svg id="ogfh4b.tif_1_" xmlns="http://www.w3.org/2000/svg" viewBox="0 0 27.824 23.629">
  <defs>
    <style>
      .cls-1 {
        fill: #fff;
      }
    </style>
  </defs>
  <g id="Group_127" data-name="Group 127" transform="translate(0 0)">
    <path id="Path_389" data-name="Path 389" class="cls-1" d="M0,78.452A7.46,7.46,0,0,1,1.47,75.4a8.663,8.663,0,0,1,5.609-2.817,9.96,9.96,0,0,1,7.635,1.927,5.665,5.665,0,0,1-.235,9.538A9.953,9.953,0,0,1,6.3,85.519a2.286,2.286,0,0,0-1.594.124c-1.112.519-2.261.976-3.472,1.495A22.531,22.531,0,0,0,1.779,84.8,2.89,2.89,0,0,0,1.47,82.95,13.7,13.7,0,0,1,0,79.811Z" transform="translate(0 -63.509)"/>
    <path id="Path_390" data-name="Path 390" class="cls-1" d="M43.393,10.6a2.343,2.343,0,0,0-.3,1.038,8.464,8.464,0,0,1-1.408,2.928,5.682,5.682,0,0,0-.8,4.534,8.927,8.927,0,0,0,.581,2.014c.049.136.161.284.062.408-.148.173-.309,0-.432-.049-1.767-.741-3.521-1.483-5.276-2.249a1.424,1.424,0,0,0-1.124-.074A9.744,9.744,0,0,1,32,19.629c.4-.605.729-1.149,1.1-1.668a.734.734,0,0,1,.383-.173c.729-.148,1.458-.259,2.174-.408a1,1,0,0,1,.7.161c.828.445,1.668.89,2.508,1.334.173.086.321.247.605.185-.111-.581-.235-1.161-.334-1.742a4.3,4.3,0,0,1,.766-3.5A6.674,6.674,0,0,0,41.07,7.089,7.907,7.907,0,0,0,37.129,3C32.088.442,27.159.664,22.81,4.222a6.821,6.821,0,0,0-2.768,4.571.49.49,0,0,1-.259.383c-.556.309-1.1.642-1.668.927-.432.222-.309-.161-.3-.334a8.26,8.26,0,0,1,2.5-5.807c3.163-3.2,7.1-4.312,11.49-4.077A13.794,13.794,0,0,1,39.39,2.53a9.03,9.03,0,0,1,3.917,6.314c0,.049.074.086.111.136C43.393,9.523,43.393,10.054,43.393,10.6Z" transform="translate(-15.594 0.145)"/>
  </g>
</svg>
